<svg width="174" height="180" viewBox="0 0 174 180" fill="none" xmlns="http://www.w3.org/2000/svg">
<path d="M0.871988 124.493C7.10591 139.516 17.295 152.57 30.3557 162.265C43.4164 171.961 58.8605 177.935 75.0457 179.553C91.2309 181.172 107.552 178.373 122.274 171.456C136.996 164.539 149.568 153.761 158.653 140.269C167.738 126.777 172.997 111.074 173.87 94.8319C174.743 78.5894 171.199 62.4139 163.612 48.0253C156.026 33.6368 144.682 21.5731 130.787 13.1172C116.892 4.66122 100.965 0.129092 84.6992 0.00271636L84.5594 18.0022C97.5718 18.1033 110.313 21.729 121.43 28.4937C132.546 35.2585 141.621 44.9094 147.69 56.4202C153.759 67.9311 156.595 80.8715 155.896 93.8655C155.198 106.859 150.99 119.421 143.722 130.215C136.454 141.009 126.397 149.631 114.619 155.165C102.842 160.699 89.7848 162.937 76.8366 161.643C63.8884 160.348 51.5331 155.569 41.0845 147.812C30.636 140.056 22.4847 129.613 17.4976 117.594L0.871988 124.493Z" fill="#5200FF"/>
</svg>
