<svg width="180" height="165" viewBox="0 0 180 165" fill="none" xmlns="http://www.w3.org/2000/svg">
<path d="M180 75C180 90.5439 175.974 105.823 168.315 119.348C160.655 132.874 149.624 144.186 136.294 152.181C122.964 160.176 107.79 164.583 92.2514 164.972C76.7124 165.361 61.3376 161.718 47.6245 154.4C33.9114 147.081 22.3276 136.336 14.0013 123.21C5.67495 110.084 0.890059 95.0257 0.112637 79.5013C-0.664785 63.9769 2.59177 48.5158 9.5651 34.6239C16.5384 20.7321 26.9908 8.88305 39.9041 0.231012L49.9233 15.1848C39.5926 22.1064 31.2307 31.5857 25.6521 42.6992C20.0734 53.8127 17.4682 66.1815 18.0901 78.6011C18.712 91.0206 22.54 103.067 29.201 113.568C35.862 124.068 45.1291 132.665 56.0996 138.52C67.0701 144.375 79.3699 147.289 91.8011 146.977C104.232 146.666 116.371 143.141 127.035 136.745C137.699 130.348 146.524 121.299 152.652 110.479C158.779 99.6582 162 87.4351 162 75H180Z" fill="#BA99FF"/>
</svg>
