<svg width="78" height="140" viewBox="0 0 78 140" fill="none" xmlns="http://www.w3.org/2000/svg">
<path d="M0.12476 139.556C9.6268 140.631 19.2485 139.749 28.3963 136.963C37.5441 134.176 46.024 129.545 53.3129 123.355C60.6017 117.165 66.5449 109.547 70.7759 100.971C75.0068 92.3949 77.4357 83.0431 77.9128 73.4923C78.3899 63.9414 76.905 54.3941 73.5498 45.4393C70.1945 36.4845 65.0401 28.3121 58.4044 21.4264C51.7687 14.5406 43.7925 9.08744 34.9679 5.40333C26.1433 1.71922 16.6575 -0.117718 7.09552 0.0058437L7.27641 14.0047C14.926 13.9058 22.5147 15.3754 29.5744 18.3227C36.634 21.2699 43.015 25.6325 48.3235 31.1411C53.632 36.6497 57.7556 43.1876 60.4398 50.3515C63.124 57.5153 64.3119 65.1531 63.9303 72.7938C63.5486 80.4345 61.6055 87.9159 58.2207 94.7766C54.836 101.637 50.0814 107.732 44.2503 112.684C38.4192 117.636 31.6353 121.341 24.3171 123.57C16.9988 125.799 9.30144 126.505 1.69981 125.644L0.12476 139.556Z" fill="#5200FF"/>
</svg>
