<svg width="140" height="140" viewBox="0 0 140 140" fill="none" xmlns="http://www.w3.org/2000/svg">
<path d="M140 70C140 56.1553 135.895 42.6215 128.203 31.1101C120.511 19.5986 109.579 10.6266 96.7878 5.32843C83.997 0.0302983 69.9223 -1.35594 56.3437 1.34503C42.765 4.046 30.2922 10.7128 20.5025 20.5025C10.7128 30.2922 4.046 42.765 1.34503 56.3437C-1.35594 69.9223 0.0302985 83.997 5.32843 96.7878C10.6266 109.579 19.5986 120.511 31.1101 128.203C42.6215 135.895 56.1553 140 70 140V126C58.9242 126 48.0972 122.716 38.8881 116.562C29.6789 110.409 22.5013 101.663 18.2627 91.4303C14.0242 81.1976 12.9153 69.9379 15.076 59.0749C17.2368 48.212 22.5703 38.2338 30.402 30.402C38.2338 22.5703 48.212 17.2368 59.0749 15.076C69.9379 12.9153 81.1976 14.0242 91.4303 18.2627C101.663 22.5013 110.409 29.6789 116.562 38.8881C122.716 48.0972 126 58.9242 126 70H140Z" fill="#CBB3FF"/>
</svg>
