<svg width="180" height="180" viewBox="0 0 180 180" fill="none" xmlns="http://www.w3.org/2000/svg">
<path d="M180 90C180 72.1997 174.722 54.7991 164.832 39.9987C154.943 25.1983 140.887 13.6627 124.442 6.85084C107.996 0.038955 89.9002 -1.74335 72.4419 1.72932C54.9836 5.20199 38.9471 13.7737 26.3604 26.3604C13.7737 38.9471 5.20199 54.9836 1.72932 72.4419C-1.74335 89.9002 0.0389552 107.996 6.85084 124.442C13.6627 140.887 25.1983 154.943 39.9987 164.832C54.7991 174.722 72.1997 180 90 180V162C75.7597 162 61.8393 157.777 49.9989 149.866C38.1586 141.954 28.9302 130.709 23.4807 117.553C18.0312 104.397 16.6053 89.9201 19.3835 75.9535C22.1616 61.9869 29.0189 49.1577 39.0883 39.0883C49.1577 29.0189 61.9869 22.1616 75.9535 19.3835C89.9201 16.6053 104.397 18.0312 117.553 23.4807C130.709 28.9302 141.954 38.1586 149.866 49.9989C157.777 61.8393 162 75.7597 162 90H180Z" fill="#F0F2F5"/>
</svg>
