<svg width="36" height="32" viewBox="0 0 36 32" fill="none" xmlns="http://www.w3.org/2000/svg">
<path d="M3.92298 20.923C3.71098 21.434 3.12498 21.674 2.61498 21.462C2.10498 21.249 1.86398 20.664 2.07598 20.154L6.69298 7.61595C6.90498 7.10595 7.49098 6.86495 7.99998 7.07695C8.50998 7.28995 8.75098 7.87495 8.53898 8.38495L3.92298 20.923Z" fill="#66757F"/>
<path d="M13.9232 20.154C14.1352 20.664 13.8942 21.249 13.3842 21.462C12.8742 21.674 12.2892 21.434 12.0762 20.923L7.46123 8.38497C7.24923 7.87497 7.49023 7.28997 8.00023 7.07697C8.51023 6.86497 9.09523 7.10597 9.30823 7.61597L13.9232 20.154ZM23.9242 20.923C23.7112 21.434 23.1252 21.674 22.6152 21.462C22.1052 21.249 21.8652 20.664 22.0772 20.154L26.6932 7.61497C26.9052 7.10597 27.4902 6.86497 28.0002 7.07697C28.5102 7.28997 28.7522 7.87497 28.5392 8.38497L23.9242 20.923Z" fill="#66757F"/>
<path d="M33.9232 20.154C34.1352 20.664 33.8952 21.249 33.3852 21.462C32.8752 21.674 32.2892 21.434 32.0762 20.923L27.4612 8.38495C27.2482 7.87495 27.4902 7.28995 28.0002 7.07695C28.5102 6.86495 29.0952 7.10595 29.3072 7.61595L33.9232 20.154Z" fill="#66757F"/>
<path d="M14.857 20H1.143C0.512 20 0 20.511 0 21.143C0 23.667 3.582 25.714 8 25.714C12.418 25.714 16 23.667 16 21.143C16 20.511 15.488 20 14.857 20ZM24 32H12C11.448 32 11 31.553 11 31C11 28.791 14.134 27 18 27C21.866 27 25 28.791 25 31C25 31.553 24.553 32 24 32ZM34.857 20H21.143C20.511 20 20 20.511 20 21.143C20 23.667 23.581 25.714 28 25.714C32.419 25.714 36 23.667 36 21.143C36 20.511 35.489 20 34.857 20Z" fill="#FFAC33"/>
<path d="M19 1C19 0.448 18.553 0 18 0C17.448 0 17 0.448 17 1V28C17 28.553 17.448 29 18 29C18.553 29 19 28.553 19 28V1Z" fill="#FFAC33"/>
<path d="M18 4C19.1046 4 20 3.10457 20 2C20 0.89543 19.1046 0 18 0C16.8954 0 16 0.89543 16 2C16 3.10457 16.8954 4 18 4Z" fill="#FFAC33"/>
<path d="M8 10C9.10457 10 10 9.10457 10 8C10 6.89543 9.10457 6 8 6C6.89543 6 6 6.89543 6 8C6 9.10457 6.89543 10 8 10Z" fill="#FFAC33"/>
<path d="M28 10C29.1046 10 30 9.10457 30 8C30 6.89543 29.1046 6 28 6C26.8954 6 26 6.89543 26 8C26 9.10457 26.8954 10 28 10Z" fill="#FFAC33"/>
<path d="M28 8C28 9.104 28 8 18 8C8 8 8 9.104 8 8C8 6.896 11 4 18 4C25 4 28 6.896 28 8Z" fill="#FFAC33"/>
</svg>
