<svg width="41" height="34" viewBox="0 0 41 34" fill="none" xmlns="http://www.w3.org/2000/svg">
<path d="M2.26679 5.6665C0.00012207 5.6665 0.00012207 7.93317 0.00012207 7.93317V31.7332C0.00012207 31.7332 0.00012207 33.9998 2.26679 33.9998H38.5335C40.8001 33.9998 40.8001 31.7332 40.8001 31.7332V7.93317C40.8001 7.93317 40.8001 5.6665 38.5335 5.6665H2.26679Z" fill="#5C913B"/>
<path d="M2.26679 0C0.00012207 0 0.00012207 2.26667 0.00012207 2.26667V24.9333C0.00012207 24.9333 0.00012207 27.2 2.26679 27.2H38.5335C40.8001 27.2 40.8001 24.9333 40.8001 24.9333V2.26667C40.8001 2.26667 40.8001 0 38.5335 0H2.26679Z" fill="#A7D28B"/>
<path d="M28.3336 20.9667C32.4021 20.9667 35.7003 17.6686 35.7003 13.6001C35.7003 9.53157 32.4021 6.2334 28.3336 6.2334C24.2651 6.2334 20.9669 9.53157 20.9669 13.6001C20.9669 17.6686 24.2651 20.9667 28.3336 20.9667Z" fill="#77B255"/>
<path d="M37.4003 25.5002H3.40032C2.46305 25.5002 1.70032 24.7375 1.70032 23.8002V3.4002C1.70032 2.46293 2.46305 1.7002 3.40032 1.7002H37.4003C38.3376 1.7002 39.1003 2.46293 39.1003 3.4002V23.8002C39.1003 24.7375 38.3376 25.5002 37.4003 25.5002ZM3.40032 2.83353C3.08865 2.83353 2.83365 3.0874 2.83365 3.4002V23.8002C2.83365 24.1119 3.08865 24.3669 3.40032 24.3669H37.4003C37.712 24.3669 37.967 24.1119 37.967 23.8002V3.4002C37.967 3.0874 37.712 2.83353 37.4003 2.83353H3.40032Z" fill="#5C913B"/>
<path d="M15.8668 0H24.9335V27.2703H15.8668V0Z" fill="#FFE8B6"/>
<path d="M15.8668 27.2002H24.9335V34.0002H15.8668V27.2002Z" fill="#FFAC33"/>
<path d="M13.3851 15.8928C13.3851 12.5166 7.15975 12.7364 7.15975 10.6976C7.15975 9.71045 8.10381 9.22878 9.19861 9.22878C11.0403 9.22878 11.3678 10.412 12.2019 10.412C12.7924 10.412 13.0769 10.0402 13.0769 9.62318C13.0769 8.65305 11.6081 7.92091 10.1993 7.66705V6.73205C10.1993 6.14838 9.72675 5.67578 9.14308 5.67578C8.55941 5.67578 8.08681 6.14951 8.08681 6.73205V7.69878C6.55228 8.05011 5.22968 9.11545 5.22968 10.8506C5.22968 14.0942 11.4551 13.9627 11.4551 16.243C11.4551 17.0306 10.6005 17.8194 9.19748 17.8194C7.09288 17.8194 6.39135 16.3948 5.53795 16.3948C5.12088 16.3948 4.74915 16.745 4.74915 17.2732C4.74915 18.113 6.15448 19.1216 8.08908 19.405L8.08795 19.4095V20.468C8.08795 21.0506 8.56168 21.5243 9.14535 21.5243C9.72788 21.5232 10.2005 21.0494 10.2005 20.468V19.4095C10.2005 19.3982 10.1948 19.388 10.1937 19.3778C11.9333 19.0525 13.3851 17.9203 13.3851 15.8928Z" fill="#5C913B"/>
</svg>
