<svg width="36" height="31" viewBox="0 0 36 31" fill="none" xmlns="http://www.w3.org/2000/svg">
<path d="M18.0001 0C8.05912 0 0.00012207 6.908 0.00012207 15.428C0.00012207 16.494 0.126122 17.535 0.367122 18.54C2.14612 21.601 3.37712 19.669 9.00012 16.857C14.7271 13.993 9.00012 20.857 7.00012 24.857C6.38512 26.087 6.71812 27.128 7.56012 27.981C10.5061 29.785 14.1041 30.857 18.0001 30.857C27.9411 30.857 36.0001 23.95 36.0001 15.428C36.0001 6.908 27.9411 0 18.0001 0ZM20.8491 24.447C20.4541 25.793 18.3891 26.371 16.2361 25.738C14.0831 25.106 12.6581 23.504 13.0531 22.157C13.4481 20.811 15.5131 20.233 17.6661 20.867C19.8191 21.498 21.2441 23.1 20.8491 24.447Z" fill="#D99E82"/>
<path d="M10.0001 10.8569C11.657 10.8569 13.0001 9.51379 13.0001 7.85693C13.0001 6.20008 11.657 4.85693 10.0001 4.85693C8.34327 4.85693 7.00012 6.20008 7.00012 7.85693C7.00012 9.51379 8.34327 10.8569 10.0001 10.8569Z" fill="#5C913B"/>
<path d="M20.0001 8.85693C21.657 8.85693 23.0001 7.51379 23.0001 5.85693C23.0001 4.20008 21.657 2.85693 20.0001 2.85693C18.3433 2.85693 17.0001 4.20008 17.0001 5.85693C17.0001 7.51379 18.3433 8.85693 20.0001 8.85693Z" fill="#226699"/>
<path d="M29.0001 14.8569C30.657 14.8569 32.0001 13.5138 32.0001 11.8569C32.0001 10.2001 30.657 8.85693 29.0001 8.85693C27.3433 8.85693 26.0001 10.2001 26.0001 11.8569C26.0001 13.5138 27.3433 14.8569 29.0001 14.8569Z" fill="#DD2E44"/>
<path d="M28.0001 23.8569C29.657 23.8569 31.0001 22.5138 31.0001 20.8569C31.0001 19.2001 29.657 17.8569 28.0001 17.8569C26.3433 17.8569 25.0001 19.2001 25.0001 20.8569C25.0001 22.5138 26.3433 23.8569 28.0001 23.8569Z" fill="#FFCC4D"/>
</svg>
