<svg width="86" height="84" viewBox="0 0 86 84" fill="none" xmlns="http://www.w3.org/2000/svg">
<path d="M42.6933 58.3369C8.15408 58.3369 -0.000427246 69.3993 -0.000427246 74.5131C-0.000427246 79.6269 4.2476 84.0006 9.48707 84.0006H75.8996C81.139 84.0006 85.3871 79.6103 85.3871 74.5131C85.3871 69.4159 77.2326 58.3369 42.6933 58.3369Z" fill="#78B159"/>
<path d="M68.3186 65.3813C68.3186 69.0126 65.3727 70.3148 61.7414 70.3148C58.1101 70.3148 55.1642 69.015 55.1642 65.3813L56.8079 50.5832C56.8079 46.9518 58.1077 47.2934 61.7414 47.2934C65.3727 47.2934 66.6749 46.9495 66.6749 50.5832L68.3186 65.3813Z" fill="#662113"/>
<path d="M82.7012 45.3794C71.8143 35.5717 67.4049 21.5278 61.7409 21.5278C56.0769 21.5278 51.6675 35.5717 40.783 45.3794C36.2077 49.5017 38.3874 51.8855 44.6587 51.4087C50.2492 50.9842 55.4768 49.6512 61.7409 49.6512C68.005 49.6512 73.235 50.9865 78.8232 51.4087C85.0944 51.8855 87.2741 49.4994 82.7012 45.3794Z" fill="#5C913B"/>
<path d="M79.1665 41.4917C70.8009 33.4249 66.0998 21.8691 61.7427 21.8691C57.3879 21.8691 52.6869 33.4249 44.3213 41.4917C37.6729 47.9028 53.0332 49.3402 61.7427 41.4917C70.4498 49.3402 85.8125 47.9028 79.1665 41.4917Z" fill="#3E721D"/>
<path d="M79.1665 34.9572C70.8009 27.4194 66.0998 16.625 61.7427 16.625C57.3879 16.625 52.6869 27.4194 44.3213 34.9572C37.6729 40.9462 53.0332 42.2887 61.7427 34.9572C70.4498 42.2887 85.8125 40.9438 79.1665 34.9572Z" fill="#5C913B"/>
<path d="M75.3445 29.6039C68.8147 23.7193 65.143 15.292 61.7417 15.292C58.3429 15.292 54.6712 23.7193 48.139 29.6039C42.9494 34.2789 54.9392 35.3296 61.7417 29.6039C68.5419 35.3272 80.5341 34.2789 75.3445 29.6039Z" fill="#3E721D"/>
<path d="M75.3445 24.7059C68.8147 18.8213 65.143 10.394 61.7417 10.394C58.3429 10.394 54.6712 18.8213 48.139 24.7059C42.9494 29.3809 54.9392 30.4316 61.7417 24.7059C68.5419 30.4316 80.5341 29.3833 75.3445 24.7059Z" fill="#5C913B"/>
<path d="M72.7186 20.3582C67.4483 15.6097 64.4858 8.80957 61.7416 8.80957C58.9973 8.80957 56.0348 15.6097 50.7645 20.3582C46.5758 24.1319 56.2531 24.9786 61.7416 20.3582C67.2301 24.9786 76.9097 24.1319 72.7186 20.3582Z" fill="#3E721D"/>
<path d="M72.7186 16.6727C67.4483 11.9242 64.4858 5.12402 61.7416 5.12402C58.9973 5.12402 56.0348 11.9242 50.7645 16.6727C46.5758 20.4463 56.2531 21.2931 61.7416 16.6727C67.2301 21.2931 76.9097 20.4463 72.7186 16.6727Z" fill="#5C913B"/>
<path d="M70.0952 11.2458C66.0867 7.63344 63.8311 2.45801 61.7414 2.45801C59.6542 2.45801 57.3985 7.63344 53.3877 11.2458C50.1999 14.1181 57.5646 14.7609 61.7414 11.2458C65.9183 14.7633 73.283 14.1181 70.0952 11.2458Z" fill="#3E721D"/>
<path d="M70.0952 8.78829C66.0867 5.17592 63.8311 0.000488281 61.7414 0.000488281C59.6542 0.000488281 57.3985 5.17592 53.3877 8.78829C50.1999 11.6606 57.5646 12.3034 61.7414 8.78829C65.9183 12.3034 73.283 11.6606 70.0952 8.78829Z" fill="#5C913B"/>
<path d="M35.8183 76.8851C34.8126 76.8851 33.916 76.2518 33.5792 75.3054L21.6914 42.0209C21.4305 41.2927 21.542 40.5313 21.9879 39.8957C22.4338 39.2671 23.1596 38.9351 23.9328 38.9351H51.8237C52.7748 38.9351 53.6358 39.4569 54.0106 40.3321L68.275 73.5929C68.5905 74.3282 68.5146 75.1607 68.0758 75.8272C67.6299 76.4961 66.8851 76.8851 66.0858 76.8851H35.8183Z" fill="#F4900C"/>
<path d="M9.66504 76.8847C8.86571 76.8847 8.11857 76.4815 7.67978 75.8174C7.24098 75.1485 7.16745 74.3041 7.48054 73.5688L21.7545 40.263C22.1269 39.3901 22.9902 38.8232 23.939 38.8232C24.8901 38.8232 25.7535 39.3925 26.1259 40.263L40.3998 73.5665C40.7153 74.3041 40.637 75.1461 40.1982 75.815C39.7594 76.4815 39.0123 76.8847 38.2129 76.8847H9.66504Z" fill="#FFCC4D"/>
<path d="M23.9318 44.7124L19.1738 76.8845H28.685L23.9318 44.7124Z" fill="#292F33"/>
<path d="M33.5059 74.2451L34.5685 76.885H28.6839L33.5059 74.2451ZM14.353 74.2451L13.2904 76.885H19.1727L14.353 74.2451Z" fill="#FFAC33"/>
<path d="M28.6853 76.8849C28.6853 76.8849 33.0092 75.782 35.1226 73.83L23.9321 44.7128L28.6853 76.8849ZM19.1741 76.8849C19.1741 76.8849 14.8502 75.782 12.7368 73.83L23.9297 44.7104L19.1741 76.8849Z" fill="#FFE8B6"/>
<path d="M32.3164 11.9544C32.2737 11.9544 32.2357 11.9687 32.193 11.9687C32.2737 11.5797 32.3164 11.1788 32.3164 10.7661C32.3164 7.49055 29.6623 4.83643 26.3867 4.83643C24.2734 4.83643 22.4328 5.94884 21.382 7.61389C20.725 7.36247 20.0182 7.21067 19.2711 7.21067C16.2469 7.21067 13.7802 9.48056 13.4149 12.4051C12.746 12.1371 12.0321 11.9544 11.266 11.9544C7.99043 11.9544 5.3363 14.6086 5.3363 17.8841C5.3363 21.1597 7.99043 23.8138 11.266 23.8138H32.3164C35.5919 23.8138 38.2461 21.1597 38.2461 17.8841C38.2461 14.6086 35.5919 11.9544 32.3164 11.9544Z" fill="#E1E8ED"/>
</svg>
