<svg width="32" height="32" viewBox="0 0 32 32" fill="none" xmlns="http://www.w3.org/2000/svg">
<path d="M25.9735 16.4667C23.8802 11.0267 16.4268 10.7334 18.2268 2.82669C18.3602 2.24002 17.7335 1.78669 17.2268 2.09336C12.3868 4.94669 8.90683 10.6667 11.8268 18.16C12.0668 18.7734 11.3468 19.3467 10.8268 18.9467C8.4135 17.12 8.16016 14.4934 8.3735 12.6134C8.4535 11.92 7.54683 11.5867 7.16016 12.16C6.2535 13.5467 5.3335 15.7867 5.3335 19.16C5.84016 26.6267 12.1468 28.92 14.4135 29.2134C17.6535 29.6267 21.1602 29.0267 23.6802 26.72C26.4535 24.1467 27.4668 20.04 25.9735 16.4667ZM13.6002 23.1734C15.5202 22.7067 16.5068 21.32 16.7735 20.0934C17.2135 18.1867 15.4935 16.32 16.6535 13.3067C17.0935 15.8 21.0135 17.36 21.0135 20.08C21.1202 23.4534 17.4668 26.3467 13.6002 23.1734Z" fill="#9296A5"/>
</svg>
