<svg width="32" height="32" viewBox="0 0 32 32" fill="none" xmlns="http://www.w3.org/2000/svg">
<path d="M25.9733 16.4662C23.8799 11.0262 16.4266 10.7329 18.2266 2.8262C18.3599 2.23954 17.7333 1.7862 17.2266 2.09287C12.3866 4.9462 8.90659 10.6662 11.8266 18.1595C12.0666 18.7729 11.3466 19.3462 10.8266 18.9462C8.41325 17.1195 8.15992 14.4929 8.37325 12.6129C8.45325 11.9195 7.54659 11.5862 7.15992 12.1595C6.25325 13.5462 5.33325 15.7862 5.33325 19.1595C5.83992 26.6262 12.1466 28.9195 14.4133 29.2129C17.6533 29.6262 21.1599 29.0262 23.6799 26.7195C26.4533 24.1462 27.4666 20.0395 25.9733 16.4662ZM13.5999 23.1729C15.5199 22.7062 16.5066 21.3195 16.7733 20.0929C17.2133 18.1862 15.4933 16.3195 16.6533 13.3062C17.0933 15.7995 21.0133 17.3595 21.0133 20.0795C21.1199 23.4529 17.4666 26.3462 13.5999 23.1729Z" fill="#5200FF"/>
</svg>
