<svg width="32" height="32" viewBox="0 0 32 32" fill="none" xmlns="http://www.w3.org/2000/svg">
<path d="M25.9733 16.4667C23.8799 11.0267 16.4266 10.7334 18.2266 2.82669C18.3599 2.24002 17.7333 1.78669 17.2266 2.09336C12.3866 4.94669 8.90659 10.6667 11.8266 18.16C12.0666 18.7734 11.3466 19.3467 10.8266 18.9467C8.41325 17.12 8.15992 14.4934 8.37325 12.6134C8.45325 11.92 7.54659 11.5867 7.15992 12.16C6.25325 13.5467 5.33325 15.7867 5.33325 19.16C5.83992 26.6267 12.1466 28.92 14.4133 29.2134C17.6533 29.6267 21.1599 29.0267 23.6799 26.72C26.4533 24.1467 27.4666 20.04 25.9733 16.4667ZM13.5999 23.1734C15.5199 22.7067 16.5066 21.32 16.7733 20.0934C17.2133 18.1867 15.4933 16.32 16.6533 13.3067C17.0933 15.8 21.0133 17.36 21.0133 20.08C21.1199 23.4534 17.4666 26.3467 13.5999 23.1734Z" fill="#9296A5"/>
</svg>
