<svg width="14" height="14" viewBox="0 0 14 14" fill="none" xmlns="http://www.w3.org/2000/svg">
<path d="M6.00489 1.30444C6.38156 0.432153 7.61844 0.432154 7.99511 1.30444C8.25407 1.90414 8.98071 2.14023 9.5427 1.80728C10.3602 1.32299 11.3608 2.05001 11.1528 2.97711C11.0098 3.61448 11.4589 4.2326 12.1093 4.29357C13.0553 4.38226 13.4375 5.55859 12.7243 6.18638C12.234 6.61799 12.234 7.38201 12.7243 7.81362C13.4375 8.44141 13.0553 9.61774 12.1093 9.70643C11.4589 9.7674 11.0098 10.3855 11.1528 11.0229C11.3608 11.95 10.3602 12.677 9.5427 12.1927C8.98071 11.8598 8.25407 12.0959 7.99511 12.6956C7.61844 13.5678 6.38156 13.5678 6.00489 12.6956C5.74593 12.0959 5.01929 11.8598 4.45729 12.1927C3.63984 12.677 2.63919 11.95 2.84717 11.0229C2.99016 10.3855 2.54108 9.7674 1.89071 9.70643C0.944715 9.61774 0.562499 8.44141 1.27569 7.81362C1.76602 7.38201 1.76602 6.61799 1.27569 6.18638C0.562499 5.55859 0.944714 4.38226 1.89071 4.29357C2.54108 4.2326 2.99016 3.61449 2.84717 2.97711C2.63919 2.05001 3.63984 1.32299 4.4573 1.80728C5.01929 2.14023 5.74593 1.90414 6.00489 1.30444Z" fill="#5200FF"/>
</svg>
