<svg width="60" height="60" viewBox="0 0 60 60" fill="none" xmlns="http://www.w3.org/2000/svg">
<path d="M35.6283 25.7481C35.7766 27.1081 34.2449 28.2398 32.2066 28.2731C30.1683 28.3065 28.7149 27.2148 28.9616 25.8348L29.5549 22.5015C29.7999 21.1198 31.1183 20.0015 32.4999 20.0015C33.8799 20.0015 35.1199 21.1048 35.2683 22.4648L35.6283 25.7481Z" fill="#CCD6DD"/>
<path d="M53.7433 35.0002H53.5183L52.7783 30.0002C52.2333 26.3185 49.6717 23.3335 47.0567 23.3335H26.9367C24.3217 23.3335 20.98 26.3185 19.4733 30.0002L17.4267 35.0002H11.5183C8.06333 35.0002 4.67833 37.9852 3.955 41.6668L2.975 46.6668C2.97333 46.6802 2.975 46.6918 2.97167 46.7018C1.30333 46.8868 0 48.2835 0 50.0002C0 51.8402 1.49333 53.3335 3.33333 53.3335H53.3333C57.015 53.3335 60 50.3485 60 46.6668V41.6668C60 37.9852 57.1983 35.0002 53.7433 35.0002Z" fill="#FFCC4D"/>
<path d="M16.6667 58.3333C20.3486 58.3333 23.3333 55.3486 23.3333 51.6667C23.3333 47.9848 20.3486 45 16.6667 45C12.9848 45 10 47.9848 10 51.6667C10 55.3486 12.9848 58.3333 16.6667 58.3333Z" fill="#292F33"/>
<path d="M16.6666 55.0002C18.5075 55.0002 19.9999 53.5078 19.9999 51.6668C19.9999 49.8259 18.5075 48.3335 16.6666 48.3335C14.8256 48.3335 13.3333 49.8259 13.3333 51.6668C13.3333 53.5078 14.8256 55.0002 16.6666 55.0002Z" fill="#CCD6DD"/>
<path d="M44.9999 58.3333C48.6818 58.3333 51.6666 55.3486 51.6666 51.6667C51.6666 47.9848 48.6818 45 44.9999 45C41.318 45 38.3333 47.9848 38.3333 51.6667C38.3333 55.3486 41.318 58.3333 44.9999 58.3333Z" fill="#292F33"/>
<path d="M45.0001 55.0002C46.841 55.0002 48.3334 53.5078 48.3334 51.6668C48.3334 49.8259 46.841 48.3335 45.0001 48.3335C43.1591 48.3335 41.6667 49.8259 41.6667 51.6668C41.6667 53.5078 43.1591 55.0002 45.0001 55.0002Z" fill="#CCD6DD"/>
<path d="M3.95508 41.6667L3.62842 43.3333H60.0001V41.6667C60.0001 41.0867 59.9084 40.535 59.7784 40H4.50342C4.26842 40.535 4.06842 41.0867 3.95508 41.6667Z" fill="#F4900C"/>
<path d="M40 34.9998H49.8667C49.8433 34.3065 49.76 33.4865 49.6067 32.4998C48.9483 28.3332 48.6867 26.6665 43.8783 26.6665H40V34.9998ZM36.6667 26.6665H28.3333C25.6767 26.6665 22.94 29.2782 21.9217 32.4998C21.5983 33.4982 21.3333 34.3132 21.135 34.9998H36.6667V26.6665Z" fill="#55ACEE"/>
</svg>
