<svg width="60" height="56" viewBox="0 0 60 56" fill="none" xmlns="http://www.w3.org/2000/svg">
<path d="M35.6283 23.8171C35.7766 25.0751 34.2449 26.1219 32.2066 26.1528C30.1683 26.1836 28.7149 25.1738 28.9616 23.8973L29.5549 20.814C29.7999 19.5359 31.1183 18.5015 32.4999 18.5015C33.8799 18.5015 35.1199 19.522 35.2683 20.78L35.6283 23.8171V23.8171Z" fill="#CCD6DD"/>
<path d="M53.7433 32.3752H53.5183L52.7783 27.7502C52.2333 24.3446 49.6717 21.5835 47.0567 21.5835H26.9367C24.3217 21.5835 20.98 24.3446 19.4733 27.7502L17.4267 32.3752H11.5183C8.06333 32.3752 4.67833 35.1363 3.955 38.5418L2.975 43.1668C2.97333 43.1792 2.975 43.19 2.97167 43.1992C1.30333 43.3703 0 44.6622 0 46.2502C0 47.9522 1.49333 49.3335 3.33333 49.3335H53.3333C57.015 49.3335 60 46.5724 60 43.1668V38.5418C60 35.1363 57.1983 32.3752 53.7433 32.3752Z" fill="#FFCC4D"/>
<path d="M16.6667 53.9583C20.3486 53.9583 23.3333 51.1974 23.3333 47.7917C23.3333 44.3859 20.3486 41.625 16.6667 41.625C12.9848 41.625 10 44.3859 10 47.7917C10 51.1974 12.9848 53.9583 16.6667 53.9583Z" fill="#292F33"/>
<path d="M16.6666 50.8752C18.5075 50.8752 19.9999 49.4947 19.9999 47.7918C19.9999 46.089 18.5075 44.7085 16.6666 44.7085C14.8256 44.7085 13.3333 46.089 13.3333 47.7918C13.3333 49.4947 14.8256 50.8752 16.6666 50.8752Z" fill="#CCD6DD"/>
<path d="M44.9999 53.9583C48.6818 53.9583 51.6666 51.1974 51.6666 47.7917C51.6666 44.3859 48.6818 41.625 44.9999 41.625C41.318 41.625 38.3333 44.3859 38.3333 47.7917C38.3333 51.1974 41.318 53.9583 44.9999 53.9583Z" fill="#292F33"/>
<path d="M45.0001 50.8752C46.841 50.8752 48.3334 49.4947 48.3334 47.7918C48.3334 46.089 46.841 44.7085 45.0001 44.7085C43.1591 44.7085 41.6667 46.089 41.6667 47.7918C41.6667 49.4947 43.1591 50.8752 45.0001 50.8752Z" fill="#CCD6DD"/>
<path d="M3.95508 38.5417L3.62842 40.0833H60.0001V38.5417C60.0001 38.0052 59.9084 37.4949 59.7784 37H4.50342C4.26842 37.4949 4.06842 38.0052 3.95508 38.5417V38.5417Z" fill="#F4900C"/>
<path d="M40 32.3748H49.8667C49.8433 31.7335 49.76 30.975 49.6067 30.0623C48.9483 26.2082 48.6867 24.6665 43.8783 24.6665H40V32.3748ZM36.6667 24.6665H28.3333C25.6767 24.6665 22.94 27.0823 21.9217 30.0623C21.5983 30.9858 21.3333 31.7397 21.135 32.3748H36.6667V24.6665Z" fill="#55ACEE"/>
</svg>
