<svg width="330" height="90" viewBox="0 0 330 90" fill="none" xmlns="http://www.w3.org/2000/svg">
<path d="M1 89L26.3488 60.092C27.5065 58.7717 29.5457 58.7237 30.7644 59.9879L49.6963 79.6288C50.7315 80.7028 52.3986 80.853 53.6092 79.9814L75.8597 63.961C76.2794 63.6588 76.6139 63.2532 76.8306 62.7836L91.2809 31.4748C91.4259 31.1606 91.6241 30.8739 91.8668 30.6274L120.141 1.90436C121.56 0.463089 123.969 0.80991 124.924 2.59283L154.645 58.1016C155.713 60.096 158.52 60.2358 159.781 58.3575L180.747 27.1217C181.226 26.4084 181.988 25.9346 182.839 25.8203L199.136 23.6337C200.002 23.5175 200.876 23.7846 201.528 24.3652L224.295 44.6086C224.586 44.8671 224.924 45.0665 225.291 45.1959L260.092 57.468C260.412 57.581 260.75 57.6388 261.09 57.6388H299.952C300.812 57.6388 301.631 58.0081 302.2 58.653L329 89" stroke="#5200FF" stroke-linejoin="round"/>
</svg>
