<svg width="328" height="106" viewBox="0 0 328 106" fill="none" xmlns="http://www.w3.org/2000/svg">
<path opacity="0.3" d="M25.3488 59.092L0.744372 87.1511C0.264551 87.6983 0 88.4013 0 89.129V103C0 104.657 1.34314 106 3 106H325C326.657 106 328 104.657 328 103V89.135C328 88.4036 327.733 87.6974 327.249 87.1492L301.2 57.653C300.631 57.0081 299.812 56.6388 298.952 56.6388H260.099C259.753 56.6388 259.41 56.579 259.084 56.4621L223.534 43.6919C223.181 43.5651 222.855 43.3732 222.573 43.1262L200.031 23.4022C199.376 22.8292 198.505 22.5688 197.643 22.6885L182.336 24.8145C181.486 24.9325 180.728 25.4083 180.252 26.1219L158.798 58.3031C157.536 60.196 154.709 60.0504 153.648 58.0379L123.913 1.62976C122.966 -0.166499 120.546 -0.522932 119.122 0.924141L90.8668 29.6274C90.6241 29.8739 90.4259 30.1606 90.2809 30.4748L75.8306 61.7836C75.6139 62.2532 75.2794 62.6588 74.8597 62.961L52.6092 78.9814C51.3986 79.853 49.7315 79.7028 48.6963 78.6288L29.7644 58.9879C28.5457 57.7237 26.5065 57.7717 25.3488 59.092Z" fill="url(#paint0_linear_171_2227)"/>
<defs>
<linearGradient id="paint0_linear_171_2227" x1="164" y1="-25" x2="164" y2="106" gradientUnits="userSpaceOnUse">
<stop stop-color="#322EFF" stop-opacity="0.8"/>
<stop offset="1" stop-color="#1914FF" stop-opacity="0"/>
</linearGradient>
</defs>
</svg>
